# xmcd
#
# Track frame offsets:
#	150
#	18974
#	39630
#	57204
#	77486
#	97431
#	118449
#	135053
#	149775
#	169431
#	186810
#	201274
#
# Disc length: 2935 seconds
#
# Revision: 0
# Processed by: cddbd v1.4b42PL1 Copyright (c) Steve Scherf et al.
# Submitted via: EZCDDA 4.3.3.2
#
DISCID=b20b750c
DTITLE=John Reily - Tea Cozy Hat
DYEAR=1900
DGENRE=
TTITLE0=Slide
TTITLE1=Tea Cozy Hat
TTITLE2=Galway Bay
TTITLE3=Carving up my Memory
TTITLE4=Arrow
TTITLE5=Talkin'
TTITLE6=My Little Number One
TTITLE7=Nothing Without You
TTITLE8=The Queen
TTITLE9=Be True
TTITLE10=This Gun is Loaded
TTITLE11=Maybe Someday
EXTD=
EXTT0=
EXTT1=
EXTT2=
EXTT3=
EXTT4=
EXTT5=
EXTT6=
EXTT7=
EXTT8=
EXTT9=
EXTT10=
EXTT11=
PLAYORDER=
